<svg width="23" height="23" viewBox="0 0 23 23" fill="none" xmlns="http://www.w3.org/2000/svg">
<g clip-path="url(#clip0_0_121)">
<path d="M15.5782 7.59066C15.5198 7.48467 15.4326 7.39739 15.3266 7.33892C15.2207 7.28044 15.1004 7.25317 14.9795 7.26025C14.8584 7.26899 14.7424 7.31266 14.6456 7.38596C14.5488 7.45926 14.4753 7.55905 14.434 7.67326C14.3528 8.00738 14.1446 8.2967 13.8536 8.47979C13.5625 8.66288 13.2116 8.72533 12.8752 8.65387C12.4917 8.60131 12.1364 8.42324 11.8647 8.14744C11.593 7.87165 11.4204 7.51367 11.3736 7.12939V3.30428C11.3737 3.18503 11.3397 3.06823 11.2758 2.96755C11.2119 2.86688 11.1207 2.78648 11.0127 2.73577C10.9048 2.68507 10.7846 2.66615 10.6664 2.68123C10.5481 2.69631 10.4365 2.74477 10.3447 2.82094C7.4465 5.38826 5.57124 8.91462 5.06308 12.7529C4.90438 13.7924 4.96961 14.8537 5.2544 15.8659C5.53918 16.878 6.03695 17.8177 6.71436 18.6219C7.8744 19.9023 9.48954 20.6779 11.2142 20.7826C13.7879 20.7826 16.7993 19.1167 17.3096 16.0301C17.9598 12.1019 15.6755 7.77304 15.5782 7.59066ZM16.0697 15.8256C15.6723 18.2293 13.2718 19.5264 11.2142 19.5264C9.84468 19.4242 8.56714 18.7986 7.64667 17.7795C7.08461 17.1071 6.67444 16.3213 6.44421 15.4758C6.21398 14.6303 6.16914 13.745 6.31276 12.8805C6.70863 9.85996 8.0389 7.03873 10.1174 4.81158V7.12939C10.1649 7.80957 10.4422 8.45341 10.9038 8.95526C11.3654 9.45711 11.9838 9.78717 12.6577 9.89128C13.0656 9.97559 13.4881 9.95669 13.8869 9.83629C14.2857 9.71589 14.648 9.49781 14.9411 9.20183C15.5471 10.6429 16.4762 13.3745 16.0697 15.8256V15.8256Z" fill="#686F82"/>
</g>
<defs>
<clipPath id="clip0_0_121">
<rect width="22" height="22" fill="white" transform="translate(0.218933 0.729378)"/>
</clipPath>
</defs>
</svg>
