<svg width="22" height="22" viewBox="0 0 22 22" fill="none" xmlns="http://www.w3.org/2000/svg">
<path fill-rule="evenodd" clip-rule="evenodd" d="M10.7189 3.35438C8.9373 3.35438 8.76886 6.45759 7.70816 7.55401C6.64746 8.65043 3.34986 7.39681 2.8917 9.3429C2.4345 11.29 5.40099 11.9506 5.76675 13.6211C6.13443 15.2916 4.322 17.6387 5.8707 18.8067C7.4194 19.9738 9.08649 17.3322 10.7189 17.3322C12.3514 17.3322 14.0185 19.9738 15.5671 18.8067C17.1158 17.6387 15.3044 15.2916 15.6711 13.6211C16.0378 11.9506 19.0034 11.29 18.5462 9.3429C18.089 7.39681 14.7904 8.65043 13.7307 7.55401C12.67 6.45759 12.5006 3.35438 10.7189 3.35438Z" stroke="#686F82" stroke-width="1.5" stroke-linecap="round" stroke-linejoin="round"/>
</svg>
